<svg xmlns="http://www.w3.org/2000/svg" viewBox="0 0 811 812"><defs><style>.cls-1{fill:#ff91da;}</style></defs><g id="Layer_2" data-name="Layer 2"><g id="Layer_1-2" data-name="Layer 1"><path class="cls-1" d="M425,300A100,100,0,0,1,325,400H25V0H325a100,100,0,0,1,0,200A100,100,0,0,1,425,300Z"/><polygon points="811 587 761 637 811 637 811 812 411 812 411 637 461 587 411 587 411 412 811 412 811 587"/><path d="M200,412C89.54,412,0,501.54,0,612S89.54,812,200,812H400V612C400,501.54,310.46,412,200,412Zm0,225a25,25,0,1,1,25-25A25,25,0,0,1,200,637Z"/></g></g></svg>