<svg xmlns="http://www.w3.org/2000/svg" xmlns:xlink="http://www.w3.org/1999/xlink" viewBox="0 0 132.69 131.67"><defs><style>.cls-1{isolation:isolate;}.cls-2{fill:#aeee4e;}.cls-3{fill:#7a35d1;}.cls-4{fill:#a6cf21;}.cls-5{fill:#ed8c68;}.cls-6{mix-blend-mode:multiply;fill:url(#Cielo_que_se_atenúa_6);}</style><linearGradient id="Cielo_que_se_atenúa_6" x1="66.35" y1="178.65" x2="66.35" y2="73.79" gradientUnits="userSpaceOnUse"><stop offset="0" stop-color="#73ff85"/><stop offset="1" stop-color="#73ff85" stop-opacity="0"/></linearGradient></defs><g class="cls-1"><g id="Layer_2" data-name="Layer 2"><g id="OBJECTS"><path class="cls-2" d="M47.38,109.77s-9.36,0-11.28,8.4a8.17,8.17,0,0,0-.11,2.52,5.6,5.6,0,0,1-.91,3.21c-1.47,2.57-1.83,3.85-1.1,6.24H80"/><path class="cls-3" d="M80,131.67H32.85l-.33-1.08c-.9-2.94-.35-4.67,1.24-7.44a4.25,4.25,0,0,0,.71-2.33,9.82,9.82,0,0,1,.14-3c1.74-7.57,9.11-9.57,12.77-9.57a1.53,1.53,0,0,1,0,3c-.35,0-8.18.14-9.8,7.21a6.9,6.9,0,0,0-.07,2,7.11,7.11,0,0,1-1.1,4.1c-1.07,1.86-1.4,2.78-1.23,4H80a1.53,1.53,0,1,1,0,3Z"/><path class="cls-2" d="M38.84,114.27v3.12a12.75,12.75,0,0,0,12.75,12.75h44a8.81,8.81,0,0,0,8.81-8.81h0A30.64,30.64,0,0,0,73.7,90.69H62.42A23.58,23.58,0,0,0,38.84,114.27Z"/><path class="cls-4" d="M45,108.45a40.86,40.86,0,0,0-5.42,0,23.49,23.49,0,0,0-.72,5.79v.6C43.84,112.39,45,108.45,45,108.45Z"/><path class="cls-4" d="M100.91,107.24c-4,.81-7.27,1.14-8.21.38,0,0,2.72,5,10.57,5.67A30.38,30.38,0,0,0,100.91,107.24Z"/><path class="cls-3" d="M95.54,131.67H51.59a14.3,14.3,0,0,1-14.28-14.28v-3.12a25.14,25.14,0,0,1,25.11-25.1H73.7a32.2,32.2,0,0,1,32.17,32.16A10.35,10.35,0,0,1,95.54,131.67ZM62.42,92.22a22.08,22.08,0,0,0-22.06,22v3.12a11.25,11.25,0,0,0,11.23,11.23h44a7.3,7.3,0,0,0,7.28-7.29A29.15,29.15,0,0,0,73.7,92.22Z"/><path class="cls-2" d="M102.48,24.8V18A16.52,16.52,0,0,0,86,1.53h0A16.51,16.51,0,0,0,69.45,18v4.42H63.24V18A16.51,16.51,0,0,0,46.73,1.53h0A16.51,16.51,0,0,0,30.22,18v7.61A45.41,45.41,0,0,0,1.53,67.87h0a40.27,40.27,0,0,0,37,40.15l2.77.22a312,312,0,0,0,50,0h0a43.28,43.28,0,0,0,39.8-43.14h0A42.68,42.68,0,0,0,102.48,24.8Z"/><path class="cls-3" d="M81.41,20.43V11.64A4.55,4.55,0,0,1,86,7.09h0a4.55,4.55,0,0,1,4.55,4.55v8.79A4.55,4.55,0,0,1,86,25h0A4.55,4.55,0,0,1,81.41,20.43Z"/><path class="cls-4" d="M92.7,107.62l2.57.12a43.27,43.27,0,0,0,35.9-42.64,42.53,42.53,0,0,0-2-12.84C133.2,84.73,92.7,107.62,92.7,107.62Z"/><path class="cls-4" d="M46.41,108.45S12.2,98.63,1.53,67.87a40.27,40.27,0,0,0,37,40.15l2.77.22c1.59.13,3.19.23,4.79.34l.29-.13"/><path class="cls-3" d="M42.18,20.43V11.64a4.55,4.55,0,0,1,4.55-4.55h0a4.55,4.55,0,0,1,4.55,4.55v8.79A4.55,4.55,0,0,1,46.73,25h0A4.55,4.55,0,0,1,42.18,20.43Z"/><path class="cls-3" d="M62.19,30.37a2.06,2.06,0,1,1-2.06-2.07A2.06,2.06,0,0,1,62.19,30.37Z"/><path class="cls-3" d="M74.63,30.37a2.07,2.07,0,1,1-2.07-2.07A2.07,2.07,0,0,1,74.63,30.37Z"/><path class="cls-3" d="M50.54,57.35a1.41,1.41,0,0,1-.45-.07,1.51,1.51,0,0,1-1-1.91c5.07-16.23-3.21-22.45-3.56-22.71a1.52,1.52,0,0,1,1.76-2.49c.43.31,10.48,7.65,4.71,26.11A1.54,1.54,0,0,1,50.54,57.35Z"/><path class="cls-3" d="M82.15,57.35a1.54,1.54,0,0,1-1.46-1.07C74.92,37.82,85,30.48,85.4,30.17a1.54,1.54,0,0,1,2.13.37,1.52,1.52,0,0,1-.37,2.12c-.38.28-8.62,6.51-3.55,22.71a1.52,1.52,0,0,1-1,1.91A1.41,1.41,0,0,1,82.15,57.35Z"/><path class="cls-3" d="M66.54,48.55A36.43,36.43,0,0,1,51.47,45a1.53,1.53,0,1,1,1.38-2.72c.16.08,16,7.94,26.6-1.34a1.52,1.52,0,1,1,2,2.29A22,22,0,0,1,66.54,48.55Z"/><path class="cls-5" d="M29.11,44.82a7.44,7.44,0,1,1,7.44,7.43A7.43,7.43,0,0,1,29.11,44.82Z"/><path class="cls-5" d="M88.71,44.82a7.44,7.44,0,1,1,7.44,7.43A7.43,7.43,0,0,1,88.71,44.82Z"/><path class="cls-3" d="M72.79,131.67a1.52,1.52,0,0,1-1.46-1.08c-.91-2.94-.35-4.67,1.23-7.44a4.15,4.15,0,0,0,.71-2.34,10,10,0,0,1,.14-3c1.06-4.61,4.38-7.83,9.34-9.09a1.53,1.53,0,1,1,.74,3c-2.68.68-6.09,2.41-7.1,6.81a6.53,6.53,0,0,0-.08,2,7.11,7.11,0,0,1-1.1,4.1c-1.36,2.38-1.52,3.23-1,5a1.52,1.52,0,0,1-1,1.91A1.35,1.35,0,0,1,72.79,131.67Z"/><path class="cls-3" d="M57.21,131.67c-1.54,0-8.19-.26-11.67-4.62-2.14-2.68-2.64-6.27-1.48-10.69a1.53,1.53,0,1,1,2.95.78c-.9,3.43-.6,6.12.91,8,1.94,2.42,5.67,3.23,8,3.42V116.75a1.53,1.53,0,1,1,3.05,0v14.86l-1.47.06Z"/><path class="cls-3" d="M57.72,131.67h-.31l-1.47-.06V116.75a1.53,1.53,0,1,1,3.05,0v11.81c2.11-.17,6-.85,8-3.42,1.5-1.88,1.81-4.58.91-8a1.53,1.53,0,1,1,3-.78c1.16,4.42.66,8-1.48,10.69C65.91,131.41,59.26,131.67,57.72,131.67Z"/><path class="cls-3" d="M46.13,110.12H46c-1.6-.1-3.21-.22-4.82-.35l-2.76-.22A42,42,0,0,1,0,67.87,46.71,46.71,0,0,1,28.69,24.62V18a18,18,0,0,1,36.08,0v2.89h3.15V18A18,18,0,0,1,104,18v5.69A44.19,44.19,0,0,1,132.69,65.1a45,45,0,0,1-41.2,44.66,1.53,1.53,0,0,1-.25-3,42,42,0,0,0,38.4-41.62A41.16,41.16,0,0,0,102,26.24l-1-.35V18a15,15,0,0,0-30,0V24H61.72V18a15,15,0,0,0-30,0v8.64l-1,.39A43.66,43.66,0,0,0,3.05,67.87,39,39,0,0,0,38.69,106.5l2.76.22c1.59.13,3.18.24,4.77.35a1.53,1.53,0,0,1-.09,3.05Z"/><path class="cls-6" d="M132.69,65.1A44.19,44.19,0,0,0,104,23.73V18a18,18,0,0,0-36.08,0v2.89H64.77V18a18,18,0,0,0-36.08,0v6.58A46.71,46.71,0,0,0,0,67.87a42,42,0,0,0,37.78,41.6,25.09,25.09,0,0,0-.4,3,11.45,11.45,0,0,0-2.77,5.32,9.82,9.82,0,0,0-.14,3,4.25,4.25,0,0,1-.71,2.33c-1.59,2.77-2.14,4.5-1.24,7.44l.33,1.08H95.54a10.35,10.35,0,0,0,10.33-10.34,32.08,32.08,0,0,0-3.19-14A45.11,45.11,0,0,0,132.69,65.1Z"/></g></g></g></svg>