<svg xmlns="http://www.w3.org/2000/svg" xmlns:xlink="http://www.w3.org/1999/xlink" viewBox="0 0 142.31 125.02"><defs><style>.cls-1{isolation:isolate;}.cls-2{fill:#ffcdcc;}.cls-3{fill:#ffa3be;}.cls-4{fill:#91447d;}.cls-5{fill:#ff94b4;}.cls-6{fill:#ffa1bd;opacity:0.79;}.cls-7{fill:#ff6392;}.cls-8{mix-blend-mode:multiply;fill:url(#Cielo_que_se_atenúa_12);}</style><linearGradient id="Cielo_que_se_atenúa_12" x1="77" y1="199.93" x2="70.67" y2="71.57" gradientUnits="userSpaceOnUse"><stop offset="0" stop-color="#f382ff"/><stop offset="1" stop-color="#f382ff" stop-opacity="0"/></linearGradient></defs><g class="cls-1"><g id="Layer_2" data-name="Layer 2"><g id="OBJECTS"><path class="cls-2" d="M31.83,92.58s-13.1,19.28,4,30.38h75.49s8.42-3.72,6.55-18.92-25.1-25.65-25.1-25.65Z"/><path class="cls-3" d="M60.46,119.31H53.07A26.84,26.84,0,0,1,50.94,123H62Z"/><path class="cls-3" d="M73.17,119.31,71.48,123h39.84a10.48,10.48,0,0,0,3.9-3.65Z"/><path class="cls-3" d="M42.82,119.31H31.47A22.21,22.21,0,0,0,35.83,123h9.68Z"/><path class="cls-3" d="M105.72,86.37l-4.45,9.8a18.36,18.36,0,0,0,14.44,1.34A37.2,37.2,0,0,0,105.72,86.37Z"/><path class="cls-3" d="M27.14,105.6a18.24,18.24,0,0,0,8.67-7.35l-.87-6.39-3.11.72A31.54,31.54,0,0,0,27.14,105.6Z"/><path class="cls-4" d="M111.64,124.49H35.38l-.38-.25c-5-3.25-8.07-7.49-9.1-12.6-2-9.94,4.39-19.51,4.67-19.91l.33-.5,62-14.44.47.21c1,.44,24,11,26,26.86,2,16.13-7.06,20.33-7.45,20.5Zm-75.35-3.06H111c1.28-.73,6.94-4.73,5.4-17.2C114.74,91.18,95.79,81.54,92.6,80L32.78,93.93c-1.19,2-5.41,9.62-3.89,17.12C29.73,115.2,32.22,118.69,36.29,121.43Z"/><path class="cls-2" d="M29.06,18.32S28.61,2.09,38.18,1.54,52.93,14.37,52.93,14.37"/><path class="cls-4" d="M29.06,19.85a1.53,1.53,0,0,1-1.53-1.49c0-.72-.36-17.72,10.56-18.34l.67,0C48.88,0,54.13,13.24,54.35,13.81a1.52,1.52,0,1,1-2.84,1.11c0-.12-4.92-12.38-13.24-11.85-8,.45-7.69,15.06-7.69,15.21a1.53,1.53,0,0,1-1.48,1.57Z"/><path class="cls-5" d="M34.51,18.32s-.9-10.76,4-11,8.84,8.45,8.84,8.45"/><path class="cls-2" d="M100.34,18.32s.45-16.23-9.12-16.78S76.47,14.37,76.47,14.37"/><path class="cls-4" d="M100.34,19.85h0a1.53,1.53,0,0,1-1.48-1.57c0-.15.29-14.76-7.69-15.21C82.76,2.55,77.94,14.8,77.89,14.92a1.52,1.52,0,1,1-2.84-1.11C75.27,13.24,80.52,0,90.64,0l.67,0c10.92.62,10.57,17.62,10.55,18.34A1.53,1.53,0,0,1,100.34,19.85Z"/><path class="cls-5" d="M94.89,18.32s.9-10.76-4-11-8.84,8.45-8.84,8.45"/><path class="cls-2" d="M89.85,98.7h0a306.13,306.13,0,0,1-49.2,0l-2.71-.22A39.6,39.6,0,0,1,1.52,59h0A44.65,44.65,0,0,1,46.17,14.37H87.05A41.92,41.92,0,0,1,129,56.29h0A42.55,42.55,0,0,1,89.85,98.7Z"/><path class="cls-3" d="M127.11,43.89c.69,26.43-23.62,51.19-23.94,51.52A42.56,42.56,0,0,0,129,56.29h0A42,42,0,0,0,127.11,43.89Z"/><path class="cls-3" d="M4.31,43.48A44.46,44.46,0,0,0,1.52,59h0A39.6,39.6,0,0,0,37.94,98.48C1.55,80.72,4.28,43.84,4.31,43.48Z"/><path class="cls-5" d="M73.26,35.85H52.46a7,7,0,0,0-7,7V48.8S49,50.78,53.2,57L74,56.31S75.4,51,80.3,49v-6.1A7,7,0,0,0,73.26,35.85Z"/><path class="cls-6" d="M42.56,40.08a6.75,6.75,0,1,1-6.75-6.75A6.75,6.75,0,0,1,42.56,40.08Z"/><circle class="cls-6" cx="88.06" cy="40.08" r="6.75"/><path class="cls-4" d="M48.42,35.85a4.63,4.63,0,1,1-4.63-4.63A4.63,4.63,0,0,1,48.42,35.85Z"/><path class="cls-7" d="M58.05,45.72a3.27,3.27,0,1,1-3.27-3.27A3.27,3.27,0,0,1,58.05,45.72Z"/><path class="cls-7" d="M74,45.72a3.27,3.27,0,1,1-3.26-3.27A3.26,3.26,0,0,1,74,45.72Z"/><path class="cls-4" d="M84.92,35.85a4.63,4.63,0,1,1-4.62-4.63A4.63,4.63,0,0,1,84.92,35.85Z"/><path class="cls-4" d="M73.26,58.32H52.46a8.1,8.1,0,0,1-1-.06,1.52,1.52,0,1,1,.34-3,4.73,4.73,0,0,0,.65,0h20.8a5.12,5.12,0,0,0,.56,0,1.53,1.53,0,0,1,.3,3A8.12,8.12,0,0,1,73.26,58.32Z"/><path class="cls-4" d="M49.81,64.89a1.52,1.52,0,0,1-1.25-2.4,8.62,8.62,0,0,0,1.55-5c0-4.58-3.64-7.91-8.66-7.91a9.54,9.54,0,0,0-1.32.09,1.53,1.53,0,0,1-.39-3,13.9,13.9,0,0,1,1.71-.11c6.68,0,11.71,4.71,11.71,11a11.69,11.69,0,0,1-2.1,6.7A1.54,1.54,0,0,1,49.81,64.89Z"/><path class="cls-4" d="M76.73,66a1.52,1.52,0,0,1-1.11-.49,11.66,11.66,0,0,1-3.17-8c0-6.77,6.48-11,12.47-11a1.53,1.53,0,1,1,0,3.05c-4.53,0-9.42,3-9.42,7.91a8.64,8.64,0,0,0,2.34,5.93,1.51,1.51,0,0,1-.07,2.15A1.48,1.48,0,0,1,76.73,66Z"/><path class="cls-4" d="M51.13,124.49H46.48l-.37-.24c-4.76-3-10.35-12.39-10.59-12.79a1.52,1.52,0,1,1,2.62-1.56c.06.09,5.16,8.63,9.25,11.53H50c.71-.81,2.47-3.3,3.28-8.66A1.52,1.52,0,0,1,55,111.49a1.54,1.54,0,0,1,1.28,1.74c-1.21,8-4.39,10.66-4.75,10.94Z"/><path class="cls-4" d="M71.43,124.49h-9.1l-.39-.28c-3.28-2.28-5.06-10.16-5.39-11.72a1.53,1.53,0,0,1,3-.62c.66,3.17,2.23,8,3.81,9.56H70c1.17-1.62,4.41-6.56,4.51-11.87a1.53,1.53,0,1,1,3.05.06c-.14,7.54-5.4,14-5.62,14.31Z"/><path class="cls-4" d="M81.3,125a1.5,1.5,0,0,1-1.37-.86,6.35,6.35,0,0,1,0-4.94c1-2.53,3.55-4.55,7.49-6a2.8,2.8,0,0,0,1.71-1.81c.82-2.8,3.78-9.39,13.32-10.17a1.54,1.54,0,0,1,1.65,1.4,1.52,1.52,0,0,1-1.4,1.64c-7.39.6-9.84,5.27-10.65,8a5.84,5.84,0,0,1-3.58,3.81c-3,1.11-5,2.57-5.69,4.22a3.36,3.36,0,0,0-.09,2.56,1.54,1.54,0,0,1-.76,2A1.48,1.48,0,0,1,81.3,125Z"/><path class="cls-4" d="M124.38,112.81a8.43,8.43,0,0,1-7.63-4.92,1.52,1.52,0,0,1,2.78-1.24,5.44,5.44,0,0,0,6.12,3,7.71,7.71,0,0,1-.06-7.59,5,5,0,0,1,4.49-2.89,4.64,4.64,0,0,1,4.52,4.07,7.49,7.49,0,0,1-2.09,6l.37-.06c5.15-.9,6.36-6.48,6.41-6.71a1.53,1.53,0,0,1,1.8-1.19,1.51,1.51,0,0,1,1.19,1.79c-.06.32-1.65,7.86-8.88,9.11a9.18,9.18,0,0,1-4.82-.26l-.51.2A11,11,0,0,1,124.38,112.81Zm5.5-10.61c-.84,0-1.44,1-1.61,1.3a4.63,4.63,0,0,0,0,4.57,3,3,0,0,0,.37.41c2.2-1.32,3.17-3.32,2.94-4.81a1.57,1.57,0,0,0-1.64-1.47Z"/><path class="cls-4" d="M40.65,100.23h-.12L37.81,100A41.34,41.34,0,0,1,0,59,46.22,46.22,0,0,1,46.17,12.84H87.05A43.5,43.5,0,0,1,130.5,56.29a44.23,44.23,0,0,1-32,42.38,1.52,1.52,0,1,1-.84-2.93,41.17,41.17,0,0,0,29.75-39.45,40.44,40.44,0,0,0-40.4-40.4H46.17A43.17,43.17,0,0,0,3.05,59,38.27,38.27,0,0,0,38.06,97l2.71.22a1.53,1.53,0,0,1-.12,3Z"/><path class="cls-8" d="M141.09,101.28a1.53,1.53,0,0,0-1.8,1.19c0,.23-1.26,5.81-6.41,6.71l-.37.06a7.49,7.49,0,0,0,2.09-6,4.64,4.64,0,0,0-4.52-4.07,5,5,0,0,0-4.49,2.89,7.71,7.71,0,0,0,.06,7.59,5.39,5.39,0,0,1-6-2.78c0-.95-.12-1.95-.25-3-.58-4.71-3-8.94-6.18-12.58a44.3,44.3,0,0,0,17.3-35,43.54,43.54,0,0,0-28.73-40.88C101.38,10.33,99.57.49,91.31,0l-.67,0C82,0,76.9,9.68,75.46,12.84H53.94C52.5,9.68,47.41,0,38.76,0l-.67,0C29,.54,27.72,12.4,27.55,16.78A46.22,46.22,0,0,0,0,59,41.41,41.41,0,0,0,27.5,97.79a25.1,25.1,0,0,0-1.6,13.85c1,5.11,4.09,9.35,9.1,12.6l.38.25H80.15a1.51,1.51,0,0,0,1.15.53,1.48,1.48,0,0,0,.64-.14,1.46,1.46,0,0,0,.52-.39h29.18l.29-.13c.32-.14,6.55-3,7.59-13.12a8.15,8.15,0,0,0,4.86,1.57,11,11,0,0,0,3.69-.69l.51-.2a9.18,9.18,0,0,0,4.82.26c7.23-1.25,8.82-8.79,8.88-9.11A1.51,1.51,0,0,0,141.09,101.28Zm-12.45,7.2a3,3,0,0,1-.37-.41,4.63,4.63,0,0,1,0-4.57c.17-.31.77-1.3,1.61-1.3h.06a1.57,1.57,0,0,1,1.64,1.47C131.81,105.16,130.84,107.16,128.64,108.48Z"/></g></g></g></svg>