<svg xmlns="http://www.w3.org/2000/svg" xmlns:xlink="http://www.w3.org/1999/xlink" viewBox="0 0 163.04 127.75"><defs><style>.cls-1{isolation:isolate;}.cls-2{fill:#e7a1ff;}.cls-3{fill:#6b2fc4;}.cls-4{fill:#d96bff;}.cls-5{fill:#c95cff;}.cls-6{mix-blend-mode:multiply;fill:url(#Cielo_que_se_atenúa_8);}</style><linearGradient id="Cielo_que_se_atenúa_8" x1="80.56" y1="156.02" x2="81.47" y2="72.86" gradientUnits="userSpaceOnUse"><stop offset="0" stop-color="#a1fff7"/><stop offset="1" stop-color="#a1fff7" stop-opacity="0"/></linearGradient></defs><g class="cls-1"><g id="Layer_2" data-name="Layer 2"><g id="OBJECTS"><path class="cls-2" d="M1.59,79.62s-1.65-10.1,11.2-10.46,21.1,11,21.83,16.51S34.3,104.76,40.7,106l3.83,3.12s-2.93,6.42-11.19,2.39S30.59,96.87,24.53,89,12.42,87.69,7.1,85.49,1.59,79.62,1.59,79.62Z"/><path class="cls-3" d="M26.1,73.44c-.51-.38-1-.74-1.6-1.08a18.2,18.2,0,0,0-3.37,4.41,22.41,22.41,0,0,0-2.54,8.3,7.78,7.78,0,0,1,1.81.5,20.81,20.81,0,0,1,2.33-7.87A16.35,16.35,0,0,1,26.1,73.44Z"/><path class="cls-3" d="M12.79,69.16c-12.85.36-11.2,10.46-11.2,10.46s.19,3.67,5.51,5.87c2.52,1,5.2.11,8-.32C13,77.54,16.64,73,21.76,70.92A20.66,20.66,0,0,0,12.79,69.16Z"/><path class="cls-4" d="M37.47,103.64a62.05,62.05,0,0,0-1.85,8.81c6.52,1.93,8.91-3.29,8.91-3.29L40.7,106A4.91,4.91,0,0,1,37.47,103.64Z"/><path class="cls-3" d="M38.38,114.41a13.13,13.13,0,0,1-5.71-1.49c-5.3-2.6-5.76-7.53-6.2-12.3-.34-3.69-.69-7.51-3.15-10.72-3.21-4.18-6.21-3.6-9.69-2.92-2.31.45-4.7.92-7.12-.08C.83,84.54.15,80.53.08,79.8a10.84,10.84,0,0,1,2.21-8c2.18-2.64,5.69-4,10.45-4.19,13.6-.4,22.56,11.58,23.39,17.84.17,1.24.24,2.77.33,4.55.27,5.48.67,13.75,4.54,14.53l.37.07,5,4.1-.49,1.08a8.4,8.4,0,0,1-7.54,4.61Zm-21.1-31c2.72,0,5.64.93,8.46,4.6,3,3.91,3.41,8.36,3.77,12.29.46,5,.92,8.09,4.5,9.84,2.41,1.17,4.5,1.47,6.21.88a5.28,5.28,0,0,0,2.27-1.59l-2.48-2c-5.83-1.55-6.27-10.62-6.6-17.28-.08-1.64-.15-3.19-.3-4.3-.63-4.69-8.3-15.54-20.28-15.19-3.82.11-6.57,1.14-8.17,3A7.85,7.85,0,0,0,3.1,79.38v.13c0,.15.33,2.82,4.57,4.57,1.57.65,3.33.3,5.37-.09A21.63,21.63,0,0,1,17.28,83.45Z"/><path class="cls-2" d="M130.5,126.23H57.38a16.89,16.89,0,0,1-16.89-16.89h0a27,27,0,0,1,25.85-27l44.74-1.89a31.92,31.92,0,0,1,33.27,31.89h0A13.86,13.86,0,0,1,130.5,126.23Z"/><path class="cls-4" d="M77.21,115.71a34.78,34.78,0,0,1,3.6,10.52h38.3a17.71,17.71,0,0,1,3.1-10.52C97.87,131.62,77.21,115.71,77.21,115.71Z"/><path class="cls-2" d="M118.94,110.63a41.83,41.83,0,0,1-3.9,11.58,6.48,6.48,0,0,1-12.18-1.52,49.79,49.79,0,0,1-1.08-10.06"/><path class="cls-2" d="M81.19,110.63a42.55,42.55,0,0,0,3.89,11.58,6.48,6.48,0,0,0,12.18-1.52,49.79,49.79,0,0,0,1.08-10.06"/><path class="cls-4" d="M142.23,100.91a32,32,0,0,0-20.52-19.08l4,18.1S130.67,106.84,142.23,100.91Z"/><path class="cls-4" d="M42.5,99.12c6.9,6.14,20.09.08,20.09.08V82.8A27,27,0,0,0,42.5,99.12Z"/><path class="cls-3" d="M130.5,127.75H57.38A18.43,18.43,0,0,1,39,109.34,28.46,28.46,0,0,1,66.28,80.85L111,79a33.44,33.44,0,0,1,34.87,33.42A15.4,15.4,0,0,1,130.5,127.75ZM112.47,82l-1.33,0L66.41,83.9A25.41,25.41,0,0,0,42,109.34,15.38,15.38,0,0,0,57.38,124.7H130.5a12.34,12.34,0,0,0,12.33-12.33A30.4,30.4,0,0,0,112.47,82Z"/><path class="cls-3" d="M80,127.75h0a1.53,1.53,0,0,1-1.5-1.55,19,19,0,0,0-7.76-15.59,1.53,1.53,0,0,1,1.69-2.54,22.08,22.08,0,0,1,9.12,18.18A1.52,1.52,0,0,1,80,127.75Z"/><path class="cls-3" d="M119.47,127.75a1.52,1.52,0,0,1-1.52-1.5,22.08,22.08,0,0,1,9.12-18.18,1.53,1.53,0,1,1,1.69,2.54A19,19,0,0,0,121,126.2a1.53,1.53,0,0,1-1.5,1.55Z"/><path class="cls-3" d="M90.87,127.38a7.92,7.92,0,0,1-7.16-4.5,44.08,44.08,0,0,1-4-12,1.53,1.53,0,0,1,3-.51,41,41,0,0,0,3.76,11.17,5,5,0,0,0,9.32-1.16,48.56,48.56,0,0,0,1-9.75,1.53,1.53,0,1,1,3.05,0A51,51,0,0,1,98.75,121a7.91,7.91,0,0,1-6.83,6.32A9.37,9.37,0,0,1,90.87,127.38Z"/><path class="cls-3" d="M109.25,127.38a9.2,9.2,0,0,1-1-.06,7.92,7.92,0,0,1-6.84-6.32,51,51,0,0,1-1.11-10.37,1.53,1.53,0,1,1,3,0,47.85,47.85,0,0,0,1,9.75,5,5,0,0,0,9.31,1.16,40.83,40.83,0,0,0,3.77-11.19,1.51,1.51,0,0,1,1.77-1.22,1.53,1.53,0,0,1,1.23,1.78,43.59,43.59,0,0,1-4,12A7.9,7.9,0,0,1,109.25,127.38Z"/><path class="cls-2" d="M100.79,19.4,112.45,5.23a10.08,10.08,0,0,1,17.86,6.09l.58,18.75Z"/><path class="cls-5" d="M105.73,24.9l11-13.32a4.37,4.37,0,0,1,7.75,2.64l.55,17.5Z"/><path class="cls-3" d="M132.48,32.25,98.23,20.11l13-15.85a11.6,11.6,0,0,1,20.56,7ZM103.35,18.69l26,9.19-.52-16.51A8.55,8.55,0,0,0,113.63,6.2Z"/><path class="cls-2" d="M88.46,19.4,76.8,5.23a10.08,10.08,0,0,0-17.86,6.09l-.58,18.75Z"/><path class="cls-5" d="M83.52,24.9l-11-13.32a4.37,4.37,0,0,0-7.75,2.64l-.55,17.5Z"/><path class="cls-3" d="M56.77,32.25l.65-21A11.6,11.6,0,0,1,78,4.26L91,20.11ZM69.11,3.07a9,9,0,0,0-2.85.47,8.41,8.41,0,0,0-5.79,7.83L60,27.88l26-9.19L75.62,6.2A8.24,8.24,0,0,0,69.11,3.07Z"/><path class="cls-2" d="M121.71,100.44h0a309.64,309.64,0,0,1-50,0l-2.76-.22a40.28,40.28,0,0,1-37-40.15h0A45.41,45.41,0,0,1,77.29,14.66h41.58A42.64,42.64,0,0,1,161.51,57.3h0A43.27,43.27,0,0,1,121.71,100.44Z"/><path class="cls-4" d="M161.51,57.3h0c0-.81,0-1.62-.07-2.42-5.68,30.28-39.73,45.56-39.73,45.56h0A43.27,43.27,0,0,0,161.51,57.3Z"/><path class="cls-4" d="M32.18,54.86a44.85,44.85,0,0,0-.31,5.21h0a40.28,40.28,0,0,0,37,40.15S42.29,89.3,32.18,54.86Z"/><path class="cls-3" d="M121.71,102a1.53,1.53,0,0,1-.12-3A42,42,0,0,0,160,57.3a41.17,41.17,0,0,0-41.12-41.12H77.29A43.94,43.94,0,0,0,33.4,60.08,39,39,0,0,0,69,98.7a1.52,1.52,0,1,1-.24,3A42,42,0,0,1,30.35,60.08,47,47,0,0,1,77.29,13.13h41.58A44.23,44.23,0,0,1,163,57.3,45,45,0,0,1,121.83,102Z"/><circle class="cls-5" cx="75.28" cy="41.62" r="7.59"/><path class="cls-3" d="M86.21,37a4.65,4.65,0,1,1-4.64-4.64A4.64,4.64,0,0,1,86.21,37Z"/><circle class="cls-5" cx="126.65" cy="41.62" r="7.59"/><path class="cls-3" d="M95.88,35.45a13.32,13.32,0,0,1,9.58-.1,2,2,0,0,1,1,2.89,13.66,13.66,0,0,1-4.75,5,2,2,0,0,1-2.09.06,11.55,11.55,0,0,1-4.94-5.2A2,2,0,0,1,95.88,35.45Z"/><path class="cls-3" d="M91.72,51.83A6.9,6.9,0,0,1,87,50.21a7.18,7.18,0,0,1-2.23-5,1.52,1.52,0,0,1,1.52-1.53h0a1.53,1.53,0,0,1,1.53,1.52A4.09,4.09,0,0,0,89,47.94a4.73,4.73,0,0,0,3.8.76c5.48-.7,6.12-6.22,6.15-6.46a1.52,1.52,0,1,1,3,.32c-.29,2.82-2.51,8.37-8.79,9.17A13,13,0,0,1,91.72,51.83Z"/><path class="cls-3" d="M109.66,51.83a13.15,13.15,0,0,1-1.49-.1c-6.28-.8-8.49-6.35-8.79-9.17a1.53,1.53,0,1,1,3-.32c0,.23.71,5.77,6.14,6.46a4.76,4.76,0,0,0,3.81-.76,4.14,4.14,0,0,0,1.21-2.76,1.54,1.54,0,0,1,1.53-1.5h0a1.51,1.51,0,0,1,1.51,1.52,7.18,7.18,0,0,1-2.23,5A6.9,6.9,0,0,1,109.66,51.83Z"/><path class="cls-3" d="M124.35,37a5.29,5.29,0,1,1-5.29-5.3A5.29,5.29,0,0,1,124.35,37Z"/><path class="cls-6" d="M163,57.3A44.25,44.25,0,0,0,132,15.11l-.12-3.83a11.6,11.6,0,0,0-20.56-7L104,13.13H85.28L78,4.26a11.6,11.6,0,0,0-20.56,7l-.2,6.37A47,47,0,0,0,30.35,60.08,41.83,41.83,0,0,0,45,91.76a28.35,28.35,0,0,0-5.49,12c-2.49-2.36-2.83-9-3.06-13.72-.09-1.78-.16-3.31-.33-4.55-.83-6.26-9.79-18.24-23.39-17.84C8,67.77,4.47,69.18,2.29,71.82a10.84,10.84,0,0,0-2.21,8c.07.73.75,4.74,6.43,7.1,2.42,1,4.81.53,7.12.08,3.48-.68,6.48-1.26,9.69,2.92,2.46,3.21,2.81,7,3.15,10.72.44,4.77.9,9.7,6.2,12.3a13.13,13.13,0,0,0,5.71,1.49,9.1,9.1,0,0,0,1.29-.1,18.42,18.42,0,0,0,17.71,13.44H130.5a15.4,15.4,0,0,0,15.38-15.38,33.23,33.23,0,0,0-4.5-16.78A45,45,0,0,0,163,57.3Z"/></g></g></g></svg>